<svg width="18" height="18" viewBox="0 0 18 18" fill="none" xmlns="http://www.w3.org/2000/svg">
<path d="M17.1359 16.3584L11.5564 10.7789C12.4223 9.65954 12.8906 8.29099 12.8906 6.85153C12.8906 5.12849 12.2182 3.51286 11.0021 2.2947C9.78613 1.07653 8.16621 0.406219 6.44531 0.406219C4.72441 0.406219 3.10449 1.07868 1.88848 2.2947C0.670312 3.51071 0 5.12849 0 6.85153C0 8.57243 0.672461 10.1924 1.88848 11.4084C3.10449 12.6265 4.72227 13.2968 6.44531 13.2968C7.88477 13.2968 9.25117 12.8285 10.3705 11.9648L15.95 17.5422C15.9664 17.5585 15.9858 17.5715 16.0072 17.5804C16.0285 17.5892 16.0515 17.5938 16.0746 17.5938C16.0978 17.5938 16.1207 17.5892 16.1421 17.5804C16.1634 17.5715 16.1829 17.5585 16.1992 17.5422L17.1359 16.6076C17.1523 16.5912 17.1653 16.5718 17.1742 16.5504C17.183 16.529 17.1876 16.5061 17.1876 16.483C17.1876 16.4598 17.183 16.4369 17.1742 16.4155C17.1653 16.3942 17.1523 16.3747 17.1359 16.3584ZM9.84844 10.2547C8.9375 11.1634 7.73008 11.664 6.44531 11.664C5.16055 11.664 3.95313 11.1634 3.04219 10.2547C2.1334 9.34372 1.63281 8.1363 1.63281 6.85153C1.63281 5.56677 2.1334 4.3572 3.04219 3.44841C3.95313 2.53962 5.16055 2.03903 6.44531 2.03903C7.73008 2.03903 8.93965 2.53747 9.84844 3.44841C10.7572 4.35934 11.2578 5.56677 11.2578 6.85153C11.2578 8.1363 10.7572 9.34587 9.84844 10.2547Z" fill="#a5a5a5"/>
</svg>
